<svg version="1" xmlns="http://www.w3.org/2000/svg" width="1345.333" height="1345.333" viewBox="0 0 1009.000000 1009.000000"><path d="M368 .7c-8.1 1.2-19.7 3.9-28 6.5-30.9 9.8-59.5 31.8-77.3 59.3-13 20.2-20.4 41.5-22.3 64.1-.5 6-.3 7.7 1.5 11.2 5.8 11.4 21.9 13 29.4 3 2.9-3.9 3.4-5.5 4.2-12.8.3-3 1.1-7.3 1.7-9.5.5-2.2 1.2-5.1 1.5-6.4 1.5-8.5 12.1-29.5 19.3-38.4 15.8-19.4 36.1-32.6 60-39 8.5-2.3 13.7-3 24.8-3.2 62.6-1.3 113.8 50.9 111.7 114.1-.3 6.1-.6 12.4-.9 14-.3 1.6-.7 6.3-1 10.5-.6 7.4-1.2 13.8-2.1 22.4-.2 2.2-.7 7.6-1.1 12-1.1 13.6-1.2 14.6-1.7 15.2-.3.3-4.5-1.9-9.4-4.9-36-22.2-70.3-34.7-111.3-40.5-11.3-1.6-45.8-.8-56 1.2-1.4.3-3.8.8-5.5 1.1-33 5.9-69 23-101.4 48.2-7.9 6.2-32 29.3-38.7 37.2-16.1 18.9-31.4 43.6-40.2 65-3.7 8.9-11.8 32.8-12.6 37.4-.2 1.2-.9 4.1-1.6 6.6-1.4 5.2-1.4 5-3.9 19-1.1 5.8-2.3 13-2.6 16-.4 3-.9 6.2-1 7-2.2 11.9-2.2 48.8 0 69.5.2 2.2.7 6.7 1 10 .4 3.3 1 8.5 1.5 11.5.6 3 1.2 7.1 1.4 9 .5 3.8 3.6 22.9 4 24.5.2.5.7 3.2 1.1 6 .5 2.7 1 5.2 1 5.5.1.3.5 2.3.9 4.5s1.2 5.5 1.8 7.2c.8 2.7.2 5.7-3.1 17.5-3.7 13.3-7.5 27.6-8.6 32.7-.3 1.1-.7 2.9-.9 3.9-.9 3.5-3.8 16.8-4.2 19.2-.2 1.4-.9 4.5-1.4 7-1 4.5-1.8 8.7-2.4 12.5-1.5 8.7-2.6 15.6-3.1 19-.3 2.2-.8 5.1-1 6.5-.2 1.4-.7 5.2-1 8.5-.4 3.3-.8 7-1 8.1-.2 1.2-.6 6.1-1 11s-.9 10.5-1.1 12.4c-.7 6.8-.6 44.9.2 46.1.4.7.3 1-.2.6-1-.6-13.3-2-17.9-2-10.5 0-23.3 2.5-33.5 6.5-11.3 4.5-24.4 12.9-28.6 18.3-5.3 6.9-3.8 18.9 2.9 23.9 8 5.9 14.1 5.5 25.2-1.8 12.4-8.2 21.8-11.4 33.6-11.4 9.1 0 19.1 3 27.9 8.3 10.5 6.4 21 5.1 26.3-3.2 3.6-5.5 4-8.8 2.2-18.9-.9-4.9-1.9-12.1-2.3-15.9-1.4-14.2-.6-58 1.2-69.5.3-1.4.7-5 1-8 .4-3 .8-6.6 1-8 .3-1.4 1.2-7.2 2.1-13 .9-5.8 2.3-13.7 3-17.5.8-3.9 1.7-8.6 2-10.5 1.7-10 5.5-23.2 5.5-19.1 0 .7 3.5 8.3 7.8 16.9C180.9 713.1 229 763.9 285.9 792l8 4-4.6 7.7c-12.7 21.6-20.8 44-24 66.6-1 6.9-1 29.7 0 37.2 2.4 18.4 9.5 38.5 18.6 53.2 3.2 5.2 3.2 6.4-.1 5.8-1.2-.3-6.1-.6-10.8-.7-11.8-.3-16.7 2.4-20.5 11.1-1.9 4.3-1.9 8.2 0 12.8 2.7 6.4 7.6 10.2 13.9 10.8 5.3.5 20.7 1.6 28.6 2 4.1.2 12.7.7 19 1.2 15.3 1 17.3.8 21.7-1.7 5.1-2.8 8.3-7.9 8.8-14 .5-6.5-1.7-10.4-11.8-21.2-33.5-35.4-41.9-78.3-24-122.6 5.1-12.8 17.2-34.2 19.3-34.2.4 0 9.5 2.9 20.1 6.4 16.7 5.5 32 9.6 45.9 12.2 8 1.5 29.2 1.1 39.1-.7 11.2-2 16-3.4 31-9.4 17.4-7 31.2-9.2 46.7-7.3 6.9.8 12.4 2.4 29.2 8.3 14.9 5.2 27.7 7.3 43.3 6.9 14.5-.3 27.5-2.8 51.5-9.8l8.2-2.4 5.1 5.7c11.8 13.2 22.6 32 28.3 49.2 4 12.1 4.5 14.7 5.2 28.9 1.1 19.2-2.7 35.4-12.7 55-2.6 5.2-8 13.9-11.9 19.3-8.2 11.6-9.5 15.5-7.6 23.3.8 3.1 5.3 8.2 8.9 10.1 3.3 1.7 19.2 2.5 51.8 2.7 12.9.1 17.2-.2 19.5-1.4 10.8-5.6 12.6-20.7 3.5-28.9-4.1-3.6-6.7-4.3-20.5-4.7-7.1-.2-13.1-.5-13.3-.7-.2-.2 1.7-4.6 4.1-9.8 14.4-30.5 17.6-62.8 9.5-95.1-5.2-20.7-16.7-43.9-31.6-63.4l-2.4-3.2 6.3-2.5c6-2.4 22.5-9.8 25.9-11.7.9-.5 5.4-2.7 10-5.1 14-7 37.9-20.8 46.4-26.7 19.7-13.6 38.8-31.9 57.7-55.1 10.5-12.8 26.9-39.2 37.7-60.5l6.9-13.5 1.5 6.7c1.5 6.3 4.4 19.9 5.3 25 2.3 12.8 4.9 29.6 5.9 37.2 2.4 19.5 3 29.7 3 52 0 22.2-.9 33.6-3.4 45.1-4 18.1 12.2 29.7 27.9 20 4.9-3 13-6.6 17.5-7.8 4.9-1.3 18.5-1.1 24.1.4 7 1.8 15.9 6.1 22.3 10.7 6.9 5 12 6.1 18.1 4.2 9.6-3.2 14.7-15 10.4-24.1-5.2-11-32.5-24.9-53.2-27.1-9.8-1-24.8-.4-27.3 1.2-.5.2-.8-9.3-.9-21.3 0-12-.2-23.4-.4-25.3-.2-1.9-.7-7.7-1.1-12.9-.4-5.1-.8-10.1-1-11-.1-.9-.6-4.3-.9-7.6-.4-3.3-.9-7.2-1.2-8.6-.2-1.4-.6-4.1-.8-6-1-7.9-2.7-17.4-5.7-32.4-1.1-5.5-2.2-11.1-2.5-12.5-.3-1.4-1.8-8.1-3.5-15s-3.2-13.4-3.5-14.5c-.2-1.1-2.2-8.5-4.4-16.5-5.1-18.1-4.9-17.1-3.9-19.8.5-1.2 1.1-3.3 1.3-4.5.2-1.2 1.3-7.2 2.5-13.2 1.1-6.1 2.3-12.4 2.6-14 1.2-6.8 5.4-35.4 6-41 1.9-18.6 2.3-27.1 2-47-.2-12.1-.6-24.3-.9-27-.3-2.8-.8-7-1.1-9.5-2.2-18.2-7.5-41-14.5-62.2-13.2-40.2-30.6-69.5-57.3-96.7-11.7-11.9-32.1-28.7-43.3-35.6-29.2-18-58.9-30.4-84.4-35.1-1.4-.2-3.4-.6-4.5-.9-1.1-.2-4.7-.7-8-1-3.3-.3-7.1-.8-8.5-1.1-3.1-.6-29.1-.5-34.5.1-2.2.2-6 .7-8.5.9-29.4 3.3-62.6 14.2-99.3 32.6l-17.9 9 .6-5.8c.9-9 2.6-28.2 3.1-34.2.2-3 .8-9.1 1.2-13.5 1.6-15.8.9-38.1-1.6-49.5-6.5-30.2-20.9-56.5-42.1-76.6-4.2-4-5.7-5.3-10.8-9.5-15.1-12.6-40.3-24.1-62.7-28.5C403.2.8 375.1-.3 368 .7zm-5.5 212.6c1.7.3 5.5.9 8.5 1.2 3 .4 5.8.9 6.1 1.1.3.2 2.1.6 4 .9 5.9 1 24 6.4 33.4 9.9 15.9 6 34.5 15.5 51.3 26.3 15.7 10.1 30.9 16.3 38.9 15.9 4-.3 22.4-8.7 32.8-15.1 8.9-5.5 37.7-19.8 48-23.8 5-1.9 9.9-3.8 11-4.2 2.5-1 2.1-.9 14-4.5 13.5-4 23.1-6 38-7.9 8.8-1.1 36.5-.6 42.5.7 2.5.6 6.1 1.3 8 1.6 7.1 1.2 9.2 1.7 19.3 5 11.9 3.9 19.6 7.2 32.7 13.9 8.2 4.3 25.6 14.9 30 18.4 33.3 26.4 50.2 47.1 65.3 80.1 7 15.2 16.5 44.3 19.2 58.7 2.4 12.9 4.5 26.2 5.1 32.5 1.4 14.2.7 53.8-1.1 65.5-.2 1.1-.6 4.2-1 7-.3 2.7-.8 6.6-1.1 8.5-.5 3.8-4.3 26.7-4.8 29.7-.2 1-1.1 5.8-2.1 10.7-3.3 17.6-14.8 49.2-27.2 74.3-22.8 46.5-53.6 84.5-86 106.4-18.3 12.4-57.6 32.8-82.3 42.7-28.1 11.3-61.9 20.9-77.5 22-15.4 1.2-25-.6-45.9-8.2-14-5.2-28.9-7.5-44.5-7.1-6.9.2-13.7.6-15.1.9-14.3 3.1-19 4.5-29.4 8.6-11.5 4.5-16.5 6.3-17.6 6.3-.3 0-1.5.3-2.7.8-7.5 2.8-24.6 3.1-38.8.5-6.2-1.1-26.6-7-39.5-11.5-51.8-17.6-78-32-106.9-58.6-39.7-36.6-72.5-90-91-148-6.1-19.1-6.2-19.3-6.7-22.3-.3-1.5-1.6-8.6-2.9-15.7-3-16.3-3-16.1-5.6-34-4-27.2-4.7-71.1-1.4-89.5.5-2.6 1-5.6 2-12.3 1-6.2 6.1-26.4 9.4-36.9 7.3-23.7 17.5-43.4 33.7-65 7-9.5 28.6-31.9 38.3-39.9 10.6-8.7 29.9-21.1 42.6-27.4 10.9-5.4 30-12.7 36.4-14 .9-.1 3.4-.8 5.6-1.3 5-1.3 9.2-2 17.5-2.8 3.6-.4 6.6-.8 6.8-.9.5-.4 27.7.3 30.7.8z"/><path d="M670 355c-18.9 3.9-34.7 12.2-48.9 25.5-5.9 5.6-13 14.5-14.9 18.8-2.6 6-.5 15.4 4.5 19.7 1.5 1.3 4.5 2.8 6.7 3.5 8.1 2.4 14.8-.3 21.1-8.5 12.1-15.7 29.7-24.9 48.9-25.5 18.5-.5 33.3 5.4 47.6 19.2 4.9 4.8 10.5 9.3 12.2 10.1 7 2.9 17.8-1.1 21.4-8 2.1-4.1 2.6-11.5.9-15.5-3.4-8-22-24.1-36-31-19-9.5-42.7-12.6-63.5-8.3zM317.5 361c-20.1 4.4-35.3 12.7-49.6 26.9-10.5 10.6-14.2 16.2-14.7 22.8-.4 4.3 0 6 2.1 9.5 3.1 5.4 9.2 9 15 9 7.5-.1 9.7-1.5 20.4-13.9 18.2-21.1 49.8-27 75.7-14.2 7.1 3.5 11.9 7.3 19.3 15 6.4 6.7 12 9.4 17.8 8.5 11.9-1.9 18.6-14.4 13.4-25.2-2.4-5-11.6-14.5-20.7-21.3-21.5-16.2-52.3-22.8-78.7-17.1zM404 486.1c-7.7 2.3-12.2 9.1-12.3 18.8-.4 29.6 12.8 60.6 35.3 83.1 18.3 18.3 39.3 29.3 65.5 34.1 10.1 1.9 32.2 1.6 42.5-.5 30.3-6.2 56.6-22.7 74.7-47.1 5.7-7.6 13.9-23.4 17.2-33 5.3-15.6 7.7-38.5 4.7-45.6-5.1-12.1-22.1-14.2-29.9-3.7-3.1 4.1-3.4 5.4-4.2 15.8-.3 4.7-1.1 10.5-1.6 13-.6 2.5-1.2 5.2-1.4 6-.5 2.1-2.1 6.3-5 12.7-9.2 20-29.2 37.5-51.1 44.7-20 6.5-42.5 5-62.3-4.2-12.4-5.8-26.5-17.5-33.9-28.3-8.8-13-14.7-30.5-15.1-44.9-.2-9.2-2.8-15.1-8-18.5-4.3-2.9-10.3-3.8-15.1-2.4z"/></svg>